<svg width="107" height="58" viewBox="0 0 107 58" fill="none" xmlns="http://www.w3.org/2000/svg">
<path d="M54.3887 0V20.6884C60.0355 20.6884 64.6116 16.0569 64.6116 10.3442C64.6116 4.63144 60.0355 0 54.3887 0Z" fill="#323232"/>
<path d="M44.1652 10.3442C44.1652 4.63144 48.744 0 54.3882 0H41.1074V26.8272H54.3882V20.6884C48.7413 20.6884 44.1652 16.0569 44.1652 10.3442Z" fill="#323232"/>
<path d="M80.6543 33.9879C79.8046 33.2555 78.7871 32.8906 77.5965 32.8906H71.2598V44.1084H73.2655V40.3744H77.5965C78.3769 40.3744 79.1014 40.2067 79.77 39.8711C80.4386 39.5355 80.966 39.0774 81.3495 38.4995C81.7331 37.9216 81.9249 37.2984 81.9249 36.6245C81.9249 35.5992 81.5013 34.7203 80.6516 33.9879H80.6543ZM78.8138 38.7152C78.0653 39.2985 77.1623 39.5888 76.1102 39.5888H73.2681V33.6736H76.1102C77.1623 33.6736 78.0653 33.9613 78.8138 34.5392C79.5622 35.1171 79.9378 35.8122 79.9378 36.6219C79.9378 37.4315 79.5622 38.132 78.8138 38.7126V38.7152Z" fill="#323232"/>
<path d="M86.0045 32.8906H83.9961V44.1084H94.2536V43.3307H86.0045V32.8906Z" fill="#323232"/>
<path d="M106.076 33.6736V32.8906H95.8184V44.1084H106.076V43.3307H97.8267V38.7232H105.951V37.9455H97.8267V33.6736H106.076Z" fill="#323232"/>
<path d="M2.28005 36.2171C2.49047 35.8362 3.80097 33.3407 6.80818 33.876C6.92005 33.8973 7.03725 33.9187 7.16244 33.9479C7.6845 34.0784 8.88846 34.5791 9.90595 35.5646L11.1126 34.5392C10.5053 34.0172 9.8074 33.6097 9.02164 33.3221C8.23587 33.0344 7.39683 32.8906 6.50453 32.8906C4.70925 32.8906 3.17502 33.4393 1.90448 34.5339C0.633939 35.6285 0 36.9521 0 38.4995C0 40.0469 0.633939 41.3705 1.90448 42.4651C3.17502 43.5597 4.70659 44.1084 6.50453 44.1084C7.39683 44.1084 8.23587 43.9645 9.02164 43.6769C9.8074 43.3893 10.5053 42.9818 11.1126 42.4598L10.4626 41.5703C7.96951 44.2255 5.23399 43.091 4.61337 42.7261C4.56809 42.6968 4.5228 42.6729 4.48019 42.6436C3.32152 41.8526 2.57837 40.9284 2.15752 39.5275C1.89649 38.5661 1.83256 38.1133 1.96308 37.2744C2.02434 36.8829 2.13355 36.542 2.28271 36.2224V36.2171H2.28005Z" fill="#323232"/>
<path d="M22.3413 37.8497H15.0936V32.8906H13.0879V44.1084H15.0936V38.7232H22.3413V44.1084H24.3496V32.8906H22.3413V37.8497Z" fill="#323232"/>
<path d="M32.1771 32.8906L26.1387 44.1084H27.0949L28.6371 41.224L36.0553 41.1468L37.7014 44.1084H39.9122L33.8738 32.8906H32.1771ZM29.1006 40.3744L32.3981 34.2516L35.6957 40.3744H29.1006Z" fill="#323232"/>
<path d="M61.4773 38.4968V39.3118H65.3582V42.292L65.1344 42.4172C62.9583 43.8873 60.862 42.846 60.3213 42.529C60.276 42.4997 60.2307 42.4758 60.1881 42.4465C59.6767 42.0976 59.2399 41.754 58.8723 41.3652C58.3742 40.8006 58.0253 40.1933 57.8282 39.5408C57.8282 39.5328 57.8228 39.5275 57.8202 39.5222V39.5142C57.6737 38.9895 57.5911 38.4862 57.5645 38.0015C57.5645 37.7777 57.5858 37.546 57.6284 37.2691C57.6896 36.8776 57.7989 36.5367 57.948 36.2171C58.1584 35.8362 59.5915 33.4659 62.5987 34.0012C62.7105 34.0225 62.8277 34.0438 62.9529 34.0731C63.475 34.2036 64.5538 34.5791 65.5739 35.5646L66.7805 34.5392C66.381 34.1956 65.9388 33.9053 65.462 33.663V33.6576C65.4274 33.639 65.3928 33.6257 65.3582 33.6097C65.2942 33.5778 65.2303 33.5485 65.1664 33.5192C65.0519 33.4686 64.9373 33.4206 64.8228 33.3753C64.7775 33.3594 64.7376 33.3381 64.6923 33.3221C64.6497 33.3061 64.6044 33.2954 64.5617 33.2795C64.4445 33.2395 64.3247 33.2022 64.2048 33.1676C64.1276 33.1463 64.0503 33.125 63.9731 33.1064C63.8479 33.0744 63.7201 33.0478 63.5922 33.0238C63.5229 33.0105 63.4564 32.9972 63.3871 32.9865C63.2326 32.9625 63.0755 32.9412 62.9183 32.9279C62.8624 32.9226 62.8064 32.9173 62.7505 32.9146C62.5614 32.9013 62.3696 32.8906 62.1752 32.8906C61.986 32.8906 61.8023 32.8986 61.6185 32.9119C61.5439 32.9173 61.472 32.9226 61.3974 32.9306C61.3068 32.9386 61.2189 32.9519 61.131 32.9625C60.0629 33.101 59.1014 33.4579 58.2437 34.0305C58.2224 34.0438 58.1984 34.0598 58.1771 34.0731C58.0093 34.1876 57.8441 34.3128 57.6843 34.446C57.6124 34.5046 57.5405 34.5658 57.4712 34.6297C57.3194 34.7656 57.1756 34.9067 57.0424 35.0505C57.0237 35.0692 57.0078 35.0905 56.9891 35.1091C56.3232 35.8495 55.9104 36.6778 55.7505 37.5993C55.7372 37.6739 55.7239 37.7511 55.7132 37.8257C55.7053 37.8896 55.6973 37.9535 55.6919 38.0174C55.676 38.1746 55.668 38.3344 55.668 38.4968C55.668 40.0469 56.3019 41.3678 57.5724 42.4625C58.843 43.5571 60.3746 44.1057 62.1725 44.1057C62.4362 44.1057 62.6919 44.0897 62.9449 44.0631C63.0115 44.0578 63.0755 44.0471 63.1394 44.0391C63.3365 44.0151 63.5309 43.9832 63.7227 43.9432C63.784 43.9299 63.8452 43.9166 63.9038 43.9033C64.1196 43.8527 64.3353 43.7914 64.5431 43.7195C64.5724 43.7089 64.6017 43.7035 64.6283 43.6929C64.647 43.6849 64.6683 43.6822 64.6896 43.6742C64.908 43.5943 65.1184 43.5038 65.3235 43.4053C65.3395 43.3973 65.3555 43.3946 65.3688 43.3866V43.3946H67.3772V38.4995H61.4773V38.4968Z" fill="#323232"/>
<path d="M51.5585 37.8497V38.7232V42.8513L43.5064 32.8933V32.8906H41.498V44.1084H43.5064V38.7232V37.8497V34.2702L51.4599 44.1084H52.5733H53.5642V32.8906H51.5585V37.8497Z" fill="#323232"/>
<path d="M19.2709 49.6127C19.2709 50.2625 19.0018 50.7845 18.4611 51.1867C17.9204 51.5889 17.1933 51.7886 16.2796 51.7886H15.1449L14.3805 54.8034H15.1556V55.0751H12.7051V54.8008H13.3417L15.0357 48.2118H14.2473V47.9375H17.0228C17.75 47.9375 18.3066 48.0813 18.6902 48.369C19.0764 48.6566 19.2682 49.0694 19.2682 49.61L19.2709 49.6127ZM18.1601 49.2026C18.1601 48.851 18.0589 48.598 17.8592 48.4435C17.6567 48.2891 17.3291 48.2118 16.8763 48.2118H16.0665L15.2302 51.509H16.1065C16.7404 51.509 17.2412 51.3065 17.6114 50.8937C17.979 50.4836 18.1628 49.919 18.1628 49.1999L18.1601 49.2026Z" fill="#323232"/>
<path d="M22.0791 47.8386L20.2865 54.2624C20.2572 54.353 20.2439 54.4409 20.2439 54.5314C20.2439 54.7019 20.3184 54.7871 20.4703 54.7871C20.8298 54.7871 21.2081 54.3716 21.605 53.5407L21.8207 53.6392C21.3679 54.6886 20.8405 55.2132 20.2439 55.2132C20.0068 55.2132 19.823 55.1573 19.6925 55.0481C19.562 54.9389 19.498 54.7764 19.498 54.5634C19.498 54.4675 19.5327 54.2917 19.5993 54.0334L21.2134 48.1635H20.3611V47.9345C20.7366 47.9345 21.019 47.9292 21.2134 47.9185C21.4079 47.9078 21.6955 47.8812 22.0764 47.8359L22.0791 47.8386Z" fill="#323232"/>
<path d="M27.2089 53.6061C26.828 54.6767 26.3139 55.2121 25.664 55.2121C25.2245 55.2121 25.0061 54.9617 25.0061 54.4584C24.6678 54.9617 24.231 55.2121 23.6983 55.2121C23.3094 55.2121 22.9898 55.0709 22.742 54.7886C22.4943 54.5063 22.3691 54.1308 22.3691 53.662C22.3691 53.0095 22.6435 52.373 23.1895 51.7525C23.7356 51.1293 24.2896 50.8203 24.8516 50.8203C25.371 50.8203 25.6853 51.0573 25.8025 51.5314L25.9863 50.9189H26.7428L25.9117 53.8218C25.7972 54.232 25.7386 54.4876 25.7386 54.5889C25.7386 54.7433 25.8025 54.8179 25.933 54.8179C26.306 54.8179 26.6575 54.3891 26.9798 53.5289L27.2063 53.6061H27.2089ZM25.5894 51.8057C25.5894 51.3024 25.3657 51.0494 24.9209 51.0494C24.532 51.0494 24.1724 51.345 23.8421 51.9362C23.6264 52.3304 23.4612 52.7272 23.3467 53.1294C23.2321 53.5315 23.1736 53.8698 23.1736 54.1494C23.1736 54.4051 23.2321 54.5995 23.3467 54.7353C23.4612 54.8712 23.6264 54.9377 23.8421 54.9377C24.3109 54.9377 24.7025 54.6208 25.0194 53.9843C25.142 53.7366 25.2858 53.3025 25.4509 52.6793C25.5442 52.3224 25.5921 52.0294 25.5921 51.8031L25.5894 51.8057Z" fill="#323232"/>
<path d="M30.1909 51.148H29.3199L28.441 54.3493C28.4063 54.4399 28.3877 54.5171 28.3877 54.5837C28.3877 54.7195 28.4702 54.7861 28.6381 54.7861C28.971 54.7861 29.3599 54.3387 29.8021 53.4411L30.0205 53.5397C29.525 54.6529 28.9737 55.2122 28.369 55.2122C28.1533 55.2122 27.9775 55.1563 27.8443 55.0418C27.7111 54.9272 27.6445 54.7781 27.6445 54.5943C27.6445 54.4771 27.6738 54.312 27.7271 54.0963L28.5581 51.1454H27.8496V50.9163H28.6327L28.9444 49.7578H29.7221L29.4078 50.9163H30.1936V51.1454L30.1909 51.148Z" fill="#323232"/>
<path d="M34.9939 48.4776C34.9939 48.7839 34.8634 48.9357 34.605 48.9357C34.3013 48.9357 34.1522 48.8052 34.1522 48.5415C34.1522 48.4536 34.1628 48.3897 34.1841 48.3444C34.2054 48.3018 34.2268 48.2619 34.2481 48.2246C34.2481 48.1367 34.1841 48.0941 34.0536 48.0941C33.4916 48.0941 32.9855 49.0369 32.53 50.9252H33.4916V51.1755H32.4661L31.9707 53.0664C31.5605 54.6245 31.1796 55.7111 30.8253 56.3236C30.4071 57.0454 29.8824 57.4049 29.2485 57.4049C29.0167 57.4049 28.8303 57.3463 28.6865 57.2291C28.5426 57.112 28.4707 56.9681 28.4707 56.7924C28.4707 56.4941 28.6145 56.3449 28.9022 56.3449C29.1606 56.3449 29.2911 56.4675 29.2911 56.7151C29.2911 56.787 29.2751 56.8563 29.2431 56.9229C29.2112 56.9895 29.1952 57.0321 29.1952 57.0534C29.1952 57.1253 29.2645 57.1626 29.4003 57.1626C29.7519 57.1626 30.0555 56.9149 30.3086 56.4195C30.4098 56.2224 30.5217 55.8576 30.6495 55.3222C30.7747 54.7869 30.9106 54.2063 31.0544 53.5805C31.1982 52.9546 31.4007 52.1529 31.659 51.1755H30.796V50.9252H31.7363C32.2903 48.8718 33.108 47.8438 34.1868 47.8438C34.4398 47.8438 34.637 47.9023 34.7808 48.0195C34.9246 48.1367 34.9965 48.2885 34.9965 48.4776H34.9939Z" fill="#323232"/>
<path d="M37.5975 52.4982C37.5975 53.0814 37.3818 53.6567 36.9503 54.2187C36.4309 54.8845 35.7943 55.2147 35.0378 55.2147C34.585 55.2147 34.2067 55.0629 33.9084 54.7593C33.6101 54.4557 33.4609 54.0855 33.4609 53.6461C33.4609 53.0548 33.6767 52.4769 34.1082 51.9149C34.6702 51.1852 35.3148 50.8203 36.042 50.8203C36.5028 50.8203 36.8757 50.9748 37.166 51.2811C37.4537 51.5873 37.5975 51.9922 37.5975 52.4955V52.4982ZM36.7318 51.8643C36.7318 51.3104 36.4895 51.0307 36.0073 51.0307C35.7703 51.0307 35.5652 51.0813 35.3921 51.1852C35.2189 51.2864 35.0724 51.4515 34.9499 51.6779C34.8913 51.7871 34.83 51.9256 34.7661 52.088C34.7022 52.2532 34.6249 52.4982 34.5397 52.8284C34.3825 53.4117 34.3026 53.8538 34.3026 54.1547C34.3026 54.7034 34.561 54.9777 35.0804 54.9777C35.3335 54.9777 35.5545 54.9111 35.7437 54.7806C35.9354 54.6501 36.0846 54.4637 36.1911 54.2213C36.3723 53.8192 36.5054 53.4117 36.596 52.9936C36.6866 52.5781 36.7318 52.1999 36.7318 51.8643Z" fill="#323232"/>
<path d="M41.6889 51.2044C41.6889 51.5106 41.5424 51.6624 41.2494 51.6624C41.1215 51.6624 41.0043 51.6092 40.9005 51.5053C40.7966 51.3988 40.7327 51.3455 40.7113 51.3455C40.5382 51.3455 40.3358 51.5266 40.0987 51.8915C39.827 52.3149 39.6139 52.8396 39.4648 53.4681L39.0786 55.0741H38.3008L39.273 51.1484H38.5165V50.9194C38.719 50.9194 38.9454 50.9194 39.1904 50.9141C39.4381 50.9087 39.7498 50.8741 40.1254 50.8022L39.8164 51.9581C40.0747 51.5559 40.3091 51.2629 40.5222 51.0765C40.7327 50.8901 40.9537 50.7969 41.1855 50.7969C41.3373 50.7969 41.4572 50.8368 41.5504 50.9167C41.6436 50.9966 41.6916 51.0925 41.6916 51.2017L41.6889 51.2044Z" fill="#323232"/>
<path d="M49.0319 53.659C48.6857 54.7004 48.1636 55.2224 47.4657 55.2224C47.0422 55.2224 46.8291 55.0226 46.8291 54.6205C46.8291 54.49 46.8664 54.2955 46.9383 54.0425L47.5456 51.9252C47.5856 51.7415 47.6042 51.6003 47.6042 51.4991C47.6042 51.2727 47.4631 51.1609 47.1834 51.1609C46.9037 51.1609 46.5974 51.318 46.2858 51.6349C45.9741 51.9519 45.761 52.3327 45.6465 52.7748L45.0392 55.0812H44.2561L45.0552 52.0451C45.0685 51.9785 45.0898 51.8986 45.1138 51.8027C45.1377 51.7068 45.1511 51.6243 45.1511 51.5604C45.1511 51.294 45.0046 51.1609 44.7089 51.1609C44.4132 51.1609 44.1336 51.318 43.8299 51.6296C43.5236 51.9412 43.3185 52.3034 43.2093 52.7136L42.5754 55.0865H41.7949L42.8071 51.1635H42.0107V50.9345C42.586 50.9345 43.14 50.9025 43.6808 50.8359L43.4117 51.84C43.8992 51.1688 44.4212 50.8359 44.9726 50.8359C45.5693 50.8359 45.8676 51.1103 45.8676 51.6562V51.8533C46.3204 51.1768 46.8425 50.8386 47.4338 50.8386C47.7294 50.8386 47.9558 50.9052 48.113 51.0357C48.2702 51.1662 48.3501 51.35 48.3501 51.5817C48.3501 51.7281 48.3314 51.872 48.2968 52.0184L47.6176 54.434C47.5883 54.5352 47.5749 54.6151 47.5749 54.6737C47.5749 54.7829 47.6389 54.8388 47.7694 54.8388C48.121 54.8388 48.4779 54.4207 48.8375 53.5818L49.0319 53.6697V53.659Z" fill="#323232"/>
<path d="M58.4479 47.9428L58.0057 49.7778H57.7367C57.766 49.6154 57.782 49.5008 57.7847 49.4316C57.7873 49.3624 57.79 49.3064 57.79 49.2612C57.79 48.7924 57.6541 48.4915 57.3798 48.3583C57.1773 48.2624 56.7245 48.2145 56.0187 48.2145H55.2409L54.4844 51.1974L54.6895 51.208C55.5046 51.208 56.0293 50.8351 56.2664 50.0921H56.5594L55.8562 52.8566H55.5765L55.6191 52.3639C55.6191 52.0443 55.5366 51.8206 55.3688 51.6981C55.2036 51.5755 54.9213 51.5116 54.5217 51.5116H54.4019L53.5655 54.8008H54.3752V55.0751H51.9141V54.8008H52.54L54.2128 48.2118H53.435V47.9375H58.4452V47.9428H58.4479Z" fill="#323232"/>
<path d="M61.0038 52.4982C61.0038 53.0814 60.788 53.6567 60.3565 54.2187C59.8371 54.8845 59.2005 55.2147 58.444 55.2147C57.9912 55.2147 57.613 55.0629 57.3147 54.7593C57.0163 54.4557 56.8672 54.0855 56.8672 53.6461C56.8672 53.0548 57.0829 52.4769 57.5144 51.9149C58.0765 51.1852 58.7211 50.8203 59.4482 50.8203C59.909 50.8203 60.2819 50.9748 60.5723 51.2811C60.8599 51.5873 61.0038 51.9922 61.0038 52.4955V52.4982ZM60.1408 51.8643C60.1408 51.3104 59.8984 51.0307 59.4163 51.0307C59.1792 51.0307 58.9741 51.0813 58.801 51.1852C58.6278 51.2864 58.4813 51.4515 58.3588 51.6779C58.3002 51.7871 58.2389 51.9256 58.175 52.088C58.1111 52.2532 58.0338 52.4982 57.9486 52.8284C57.7915 53.4117 57.7115 53.8538 57.7115 54.1547C57.7115 54.7034 57.9699 54.9777 58.4893 54.9777C58.7424 54.9777 58.9634 54.9111 59.1526 54.7806C59.3443 54.6501 59.4935 54.4637 59.6001 54.2213C59.7785 53.8192 59.9144 53.4117 60.0049 52.9936C60.0955 52.5781 60.1408 52.1999 60.1408 51.8643Z" fill="#323232"/>
<path d="M65.099 51.2044C65.099 51.5106 64.9525 51.6624 64.6596 51.6624C64.5317 51.6624 64.4145 51.6092 64.3106 51.5053C64.2067 51.3988 64.1428 51.3455 64.1215 51.3455C63.9484 51.3455 63.7459 51.5266 63.5089 51.8915C63.2372 52.3149 63.0241 52.8396 62.8749 53.4681L62.4887 55.0741H61.7109L62.6832 51.1484H61.9267V50.9194C62.1291 50.9194 62.3555 50.9194 62.6006 50.9141C62.8483 50.9087 63.1599 50.8741 63.5355 50.8022L63.2265 51.9581C63.4849 51.5559 63.7193 51.2629 63.9324 51.0765C64.1428 50.8901 64.3639 50.7969 64.5956 50.7969C64.7475 50.7969 64.8673 50.8368 64.9605 50.9167C65.0538 50.9966 65.1017 51.0925 65.1017 51.2017L65.099 51.2044Z" fill="#323232"/>
<path d="M74.1686 47.9428L73.7264 49.7778H73.4574C73.4867 49.6154 73.5027 49.5008 73.5054 49.4316C73.508 49.3624 73.5107 49.3064 73.5107 49.2612C73.5107 48.7924 73.3748 48.4915 73.1005 48.3583C72.8981 48.2624 72.4452 48.2145 71.7394 48.2145H70.9616L70.2052 51.1974L70.4102 51.208C71.2253 51.208 71.75 50.8351 71.9871 50.0921H72.2801L71.5769 52.8566H71.2972L71.3398 52.3639C71.3398 52.0443 71.2573 51.8206 71.0895 51.6981C70.9243 51.5755 70.642 51.5116 70.2424 51.5116H70.1226L69.2862 54.8008H70.0959V55.0751H67.6348V54.8008H68.2607L69.9335 48.2118H69.1557V47.9375H74.1659V47.9428H74.1686Z" fill="#323232"/>
<path d="M76.7284 52.4982C76.7284 53.0814 76.5126 53.6567 76.0811 54.2187C75.5617 54.8845 74.9251 55.2147 74.1687 55.2147C73.7158 55.2147 73.3403 55.0629 73.0393 54.7593C72.741 54.4557 72.5918 54.0855 72.5918 53.6461C72.5918 53.0548 72.8075 52.4769 73.2391 51.9149C73.8011 51.1852 74.4457 50.8203 75.1728 50.8203C75.6336 50.8203 76.0065 50.9748 76.2969 51.2811C76.5845 51.5873 76.7284 51.9922 76.7284 52.4955V52.4982ZM75.8654 51.8643C75.8654 51.3104 75.623 51.0307 75.1409 51.0307C74.9038 51.0307 74.6987 51.0813 74.5256 51.1852C74.3524 51.2864 74.2059 51.4515 74.0834 51.6779C74.0248 51.7871 73.9636 51.9256 73.8996 52.088C73.8357 52.2532 73.7585 52.4982 73.6732 52.8284C73.5161 53.4117 73.4362 53.8538 73.4362 54.1547C73.4362 54.7034 73.6945 54.9777 74.2139 54.9777C74.467 54.9777 74.6881 54.9111 74.8772 54.7806C75.0689 54.6501 75.2181 54.4637 75.3247 54.2213C75.5058 53.8192 75.639 53.4117 75.7295 52.9936C75.8201 52.5781 75.8654 52.1999 75.8654 51.8643Z" fill="#323232"/>
<path d="M82.3009 53.6778C82.1411 54.1732 81.9306 54.5541 81.6669 54.8204C81.4032 55.0867 81.1182 55.2199 80.8146 55.2199C80.5829 55.2199 80.3991 55.1639 80.2606 55.0547C80.122 54.9456 80.0555 54.8044 80.0555 54.6286L80.0874 54.2238C79.5707 54.887 79.0406 55.2172 78.4946 55.2172C78.2016 55.2172 77.9725 55.1533 77.8127 55.0255C77.6502 54.8976 77.5703 54.7192 77.5703 54.4928C77.5703 54.4129 77.5916 54.2904 77.6369 54.1306L78.3801 51.1584H77.573V50.9267C78.2069 50.9267 78.7609 50.8947 79.2351 50.8281L78.3614 54.2265L78.3188 54.4928C78.3188 54.7458 78.46 54.871 78.7396 54.871C79.0992 54.871 79.4322 54.6899 79.7358 54.3277C80.0395 53.9655 80.2792 53.4435 80.4603 52.7643L80.9478 50.9293H81.7176L80.8545 54.2504C80.8172 54.3809 80.8013 54.4901 80.8013 54.578C80.8013 54.7458 80.8838 54.8284 81.049 54.8284C81.4086 54.8284 81.7575 54.4156 82.0958 53.5926L82.3009 53.6805V53.6778Z" fill="#323232"/>
<path d="M87.6791 53.6432C87.4846 54.1705 87.2662 54.5647 87.0185 54.8257C86.7708 55.0867 86.4751 55.2172 86.1315 55.2172C85.9238 55.2172 85.756 55.1639 85.6308 55.0574C85.5056 54.9509 85.4417 54.8071 85.4417 54.6313C85.4417 54.5061 85.4603 54.3516 85.4949 54.1652L86.1369 51.9281L86.2061 51.5738C86.2061 51.2942 86.0543 51.1557 85.7533 51.1557C85.4523 51.1557 85.1407 51.3208 84.821 51.6511C84.5014 51.9813 84.2723 52.4021 84.1365 52.9161L83.5665 55.0787H82.7754L83.7902 51.1557H82.9911V50.9267C83.4946 50.9267 83.8248 50.9213 83.9847 50.9107C84.1418 50.9 84.3709 50.8734 84.6639 50.8281L84.3949 51.8428C84.8637 51.1664 85.3964 50.8281 85.993 50.8281C86.294 50.8281 86.5364 50.8974 86.7175 51.0332C86.8987 51.169 86.9866 51.3581 86.9866 51.5952C86.9866 51.6537 86.9786 51.723 86.9652 51.8056C86.9519 51.8881 86.9333 51.9733 86.912 52.0612L86.2221 54.4662L86.1901 54.6233C86.1901 54.7591 86.262 54.8257 86.4059 54.8257C86.7735 54.8257 87.1304 54.4022 87.474 53.558L87.6791 53.6459V53.6432Z" fill="#323232"/>
<path d="M93.2587 47.8438L91.466 54.3022C91.4288 54.4141 91.4128 54.4966 91.4128 54.5472C91.4128 54.7257 91.5033 54.8162 91.6818 54.8162C91.8603 54.8162 92.0387 54.7017 92.2332 54.4753C92.4276 54.2463 92.6034 53.9134 92.7632 53.4739L93.0109 53.5725C92.6087 54.6724 92.092 55.221 91.466 55.221C91.0052 55.221 90.7762 54.992 90.7762 54.5339V54.478C90.4166 54.9733 89.9798 55.221 89.4683 55.221C89.0874 55.221 88.7598 55.0746 88.4908 54.7789C88.2218 54.486 88.0859 54.1158 88.0859 53.6737C88.0859 53.0478 88.3416 52.4273 88.8557 51.8094C89.3964 51.1542 89.9798 50.8293 90.6004 50.8293C91.0559 50.8293 91.3622 51.0051 91.522 51.3566L92.393 48.1767H91.5193V47.945C92.1373 47.945 92.7179 47.913 93.2587 47.8464V47.8438ZM91.3275 51.7534C91.3275 51.282 91.1011 51.045 90.6483 51.045C90.1955 51.045 89.8519 51.3247 89.5589 51.8839C89.5083 51.9852 89.4444 52.1343 89.3698 52.3314C89.2952 52.5285 89.2286 52.7282 89.17 52.9306C89.0049 53.5112 88.9223 53.9187 88.9223 54.1504C88.9223 54.6804 89.1514 54.9467 89.6122 54.9467C90.1449 54.9467 90.5631 54.5579 90.8641 53.7802C91.0159 53.402 91.1304 53.0132 91.2103 52.6084C91.2903 52.2062 91.3302 51.9212 91.3302 51.7534H91.3275Z" fill="#323232"/>
</svg>
