<svg width="42" height="37" viewBox="0 0 42 37" fill="none" xmlns="http://www.w3.org/2000/svg">
<path fill-rule="evenodd" clip-rule="evenodd" d="M20.543 36.0035C20.0605 36.4859 19.4062 36.7568 18.7239 36.7568C18.0416 36.7568 17.3873 36.4859 16.9048 36.0035L1.46672 20.5654C0.984356 20.0829 0.713379 19.4286 0.713379 18.7463C0.713379 18.064 0.984356 17.4097 1.46672 16.9272L16.9048 1.48911C17.3901 1.02042 18.04 0.76107 18.7147 0.766933C19.3893 0.772795 20.0346 1.0434 20.5117 1.52045C20.9887 1.99751 21.2593 2.64286 21.2652 3.31749C21.2711 3.99213 21.0117 4.64207 20.543 5.12735L9.49709 16.1733L39.308 16.1733C39.9904 16.1733 40.6449 16.4444 41.1274 16.9269C41.6099 17.4094 41.881 18.0639 41.881 18.7463C41.881 19.4287 41.6099 20.0832 41.1274 20.5657C40.6449 21.0482 39.9904 21.3193 39.308 21.3193L9.49709 21.3193L20.543 32.3653C21.0254 32.8478 21.2964 33.5021 21.2964 34.1844C21.2964 34.8666 21.0254 35.521 20.543 36.0035Z" fill="#617DAE"/>
</svg>
