<svg width="30" height="34" viewBox="0 0 30 34" fill="none" xmlns="http://www.w3.org/2000/svg">
<path d="M17.0019 26.0245C18.6708 26.0245 20.3233 25.6958 21.8651 25.0572C23.4069 24.4186 24.8078 23.4825 25.9879 22.3024C27.1679 21.1224 28.104 19.7215 28.7427 18.1796C29.3813 16.6378 29.71 14.9853 29.71 13.3165C29.71 11.6476 29.3813 9.99512 28.7427 8.4533C28.104 6.91149 27.1679 5.51056 25.9879 4.33051C24.8078 3.15045 23.4069 2.21438 21.8651 1.57574C20.3233 0.937102 18.6708 0.608398 17.0019 0.608398L17.0019 13.3165L17.0019 26.0245Z" fill="#90A4C8"/>
<path fill-rule="evenodd" clip-rule="evenodd" d="M17 0.608398H0.290001V33.8249H17V26.0245C17 26.0245 17 26.0245 17 26.0245L17 13.3165V0.608402C17 0.608402 17 0.608398 17 0.608398ZM17 0.608398V26.0245C15.3312 26.0245 13.6787 25.6958 12.1369 25.0572C10.5951 24.4186 9.19414 23.4825 8.01408 22.3024C6.83403 21.1224 5.89796 19.7215 5.25932 18.1796C4.62068 16.6378 4.29197 14.9853 4.29197 13.3165C4.29197 11.6476 4.62068 9.99512 5.25932 8.45331C5.89796 6.91149 6.83403 5.51056 8.01408 4.33051C9.19413 3.15046 10.5951 2.21439 12.1369 1.57575C13.6787 0.937108 15.3312 0.608401 17 0.608398Z" fill="#90A4C8"/>
</svg>
