<svg width="48" height="49" viewBox="0 0 48 49" fill="none" xmlns="http://www.w3.org/2000/svg">
<g clip-path="url(#clip0_1063_229)">
<path fill-rule="evenodd" clip-rule="evenodd" d="M0 24.4062C0 11.1515 10.7452 0.40625 24 0.40625C37.2548 0.40625 48 11.1515 48 24.4062C48 37.661 37.2548 48.4062 24 48.4062C10.7452 48.4062 0 37.661 0 24.4062ZM36.265 18.4795C35.9706 17.3485 35.1031 16.4579 34.0016 16.1556C32.0054 15.6062 24 15.6062 24 15.6062C24 15.6062 15.9946 15.6062 13.9983 16.1556C12.8967 16.4579 12.0292 17.3485 11.7348 18.4795C11.2 20.5293 11.2 24.8062 11.2 24.8062C11.2 24.8062 11.2 29.0831 11.7348 31.1331C12.0292 32.2641 12.8967 33.1547 13.9983 33.4571C15.9946 34.0063 24 34.0062 24 34.0062C24 34.0062 32.0054 34.0063 34.0016 33.4571C35.1031 33.1547 35.9706 32.2641 36.265 31.1331C36.8 29.0831 36.8 24.8062 36.8 24.8062C36.8 24.8062 36.8 20.5293 36.265 18.4795Z" fill="#617DAE"/>
<path fill-rule="evenodd" clip-rule="evenodd" d="M21.6 29.207V21.207L28 25.2071L21.6 29.207Z" fill="#617DAE"/>
</g>
<defs>
<clipPath id="clip0_1063_229">
<rect width="48" height="48" fill="white" transform="translate(0 0.40625)"/>
</clipPath>
</defs>
</svg>
