<svg width="48" height="49" viewBox="0 0 48 49" fill="none" xmlns="http://www.w3.org/2000/svg">
<g clip-path="url(#clip0_1063_220)">
<path fill-rule="evenodd" clip-rule="evenodd" d="M0 24.4062C0 11.1515 10.7452 0.40625 24 0.40625C37.2548 0.40625 48 11.1515 48 24.4062C48 37.661 37.2548 48.4062 24 48.4062C10.7452 48.4062 0 37.661 0 24.4062ZM24.0012 11.6062C20.5249 11.6062 20.0886 11.6214 18.7233 11.6835C17.3606 11.7459 16.4305 11.9617 15.6166 12.2782C14.7747 12.6051 14.0606 13.0425 13.3491 13.7542C12.6371 14.4657 12.1997 15.1799 11.8717 16.0215C11.5544 16.8357 11.3384 17.7661 11.2771 19.1282C11.216 20.4936 11.2 20.93 11.2 24.4063C11.2 27.8826 11.2155 28.3176 11.2773 29.6829C11.34 31.0456 11.5557 31.9757 11.872 32.7896C12.1992 33.6315 12.6365 34.3457 13.3483 35.0572C14.0595 35.7692 14.7736 36.2075 15.615 36.5345C16.4294 36.851 17.3598 37.0668 18.7222 37.1292C20.0876 37.1914 20.5236 37.2066 23.9996 37.2066C27.4762 37.2066 27.9111 37.1914 29.2765 37.1292C30.6391 37.0668 31.5703 36.851 32.3848 36.5345C33.2264 36.2075 33.9394 35.7692 34.6506 35.0572C35.3626 34.3457 35.8 33.6316 36.128 32.79C36.4427 31.9758 36.6587 31.0454 36.7227 29.6833C36.784 28.3179 36.8 27.8826 36.8 24.4063C36.8 20.93 36.784 20.4939 36.7227 19.1285C36.6587 17.7658 36.4427 16.8357 36.128 16.0218C35.8 15.1799 35.3626 14.4657 34.6506 13.7542C33.9386 13.0422 33.2266 12.6049 32.384 12.2782C31.5679 11.9617 30.6373 11.7459 29.2746 11.6835C27.9092 11.6214 27.4746 11.6062 23.9972 11.6062H24.0012Z" fill="#617DAE"/>
<path fill-rule="evenodd" clip-rule="evenodd" d="M22.8529 13.9134C23.1937 13.9129 23.574 13.9134 24.0012 13.9134C27.4188 13.9134 27.8239 13.9257 29.1735 13.987C30.4215 14.0441 31.0989 14.2526 31.5501 14.4278C32.1474 14.6598 32.5733 14.9371 33.021 15.3851C33.469 15.8331 33.7464 16.2598 33.9789 16.8572C34.1541 17.3078 34.3629 17.9852 34.4197 19.2332C34.481 20.5825 34.4944 20.9879 34.4944 24.4039C34.4944 27.8199 34.481 28.2253 34.4197 29.5746C34.3626 30.8226 34.1541 31.5 33.9789 31.9506C33.7469 32.548 33.469 32.9733 33.021 33.4211C32.573 33.8691 32.1477 34.1464 31.5501 34.3784C31.0994 34.5544 30.4215 34.7624 29.1735 34.8195C27.8242 34.8808 27.4188 34.8941 24.0012 34.8941C20.5833 34.8941 20.1782 34.8808 18.8289 34.8195C17.5809 34.7619 16.9035 34.5533 16.4521 34.3781C15.8547 34.1461 15.428 33.8688 14.98 33.4208C14.532 32.9728 14.2547 32.5472 14.0222 31.9496C13.847 31.4989 13.6382 30.8216 13.5814 29.5736C13.52 28.2242 13.5078 27.8189 13.5078 24.4007C13.5078 20.9825 13.52 20.5793 13.5814 19.23C13.6384 17.982 13.847 17.3046 14.0222 16.8534C14.2542 16.2561 14.532 15.8294 14.98 15.3814C15.428 14.9334 15.8547 14.6561 16.4521 14.4235C16.9033 14.2475 17.5809 14.0395 18.8289 13.9822C20.0097 13.9289 20.4673 13.9129 22.8529 13.9102V13.9134ZM30.8338 16.0387C29.9858 16.0387 29.2978 16.726 29.2978 17.5742C29.2978 18.4222 29.9858 19.1102 30.8338 19.1102C31.6818 19.1102 32.3698 18.4222 32.3698 17.5742C32.3698 16.7262 31.6818 16.0387 30.8338 16.0387ZM24.0012 17.8334C20.371 17.8334 17.4278 20.7767 17.4278 24.4068C17.4278 28.037 20.371 30.9789 24.0012 30.9789C27.6314 30.9789 30.5735 28.037 30.5735 24.4068C30.5735 20.7767 27.6314 17.8334 24.0012 17.8334Z" fill="#617DAE"/>
<path fill-rule="evenodd" clip-rule="evenodd" d="M24.0012 20.1406C26.3575 20.1406 28.2679 22.0508 28.2679 24.4073C28.2679 26.7636 26.3575 28.674 24.0012 28.674C21.6446 28.674 19.7345 26.7636 19.7345 24.4073C19.7345 22.0508 21.6446 20.1406 24.0012 20.1406Z" fill="#617DAE"/>
</g>
<defs>
<clipPath id="clip0_1063_220">
<rect width="48" height="48" fill="white" transform="translate(0 0.40625)"/>
</clipPath>
</defs>
</svg>
