<svg width="48" height="49" viewBox="0 0 48 49" fill="none" xmlns="http://www.w3.org/2000/svg">
<path d="M23.9999 47.5111C36.7606 47.5111 47.1051 37.1666 47.1051 24.4059C47.1051 11.6453 36.7606 1.30078 23.9999 1.30078C11.2393 1.30078 0.894775 11.6453 0.894775 24.4059C0.894775 37.1666 11.2393 47.5111 23.9999 47.5111Z" fill="#617DAE"/>
<path d="M11.6393 13.4766H20.2404C20.2404 13.4766 28.0528 25.277 28.2835 25.5934C28.5198 25.9131 28.5472 25.5934 28.5472 25.5934C28.1868 23.7674 27.7957 22.9478 27.7957 20.0266V13.4766H36.3606V35.3372H27.7957C27.7957 35.3372 20.1437 24.1663 19.913 23.8576C19.6811 23.5467 19.6504 23.8576 19.6504 23.8576C19.9448 25.3649 20.2052 25.6165 20.2052 28.2346V35.3373H11.6392L11.6393 13.4766Z" fill="white"/>
</svg>
