<svg width="27" height="30" viewBox="0 0 27 30" fill="none" xmlns="http://www.w3.org/2000/svg">
<path d="M13.4574 19.9639V22.9639M4.4574 28.9639H22.4574C23.253 28.9639 24.0161 28.6478 24.5787 28.0852C25.1413 27.5226 25.4574 26.7595 25.4574 25.9639V16.9639C25.4574 16.1682 25.1413 15.4052 24.5787 14.8425C24.0161 14.2799 23.253 13.9639 22.4574 13.9639H4.4574C3.66175 13.9639 2.89869 14.2799 2.33608 14.8425C1.77347 15.4052 1.4574 16.1682 1.4574 16.9639V25.9639C1.4574 26.7595 1.77347 27.5226 2.33608 28.0852C2.89869 28.6478 3.66175 28.9639 4.4574 28.9639ZM19.4574 13.9639V7.96387C19.4574 6.37257 18.8253 4.84644 17.7 3.72123C16.5748 2.59601 15.0487 1.96387 13.4574 1.96387C11.8661 1.96387 10.34 2.59601 9.21476 3.72123C8.08954 4.84644 7.4574 6.37257 7.4574 7.96387V13.9639H19.4574Z" stroke="#90A4C8" stroke-width="2" stroke-linecap="round" stroke-linejoin="round"/>
</svg>
