<svg width="16" height="17" viewBox="0 0 16 17" fill="none" xmlns="http://www.w3.org/2000/svg">
<path fill-rule="evenodd" clip-rule="evenodd" d="M8.24279 6.8065C9.09527 6.8065 9.91284 6.46786 10.5156 5.86506C11.1184 5.26226 11.4571 4.4447 11.4571 3.59222C11.4571 2.73973 11.1184 1.92217 10.5156 1.31937C9.91284 0.716577 9.09527 0.37793 8.24279 0.37793C7.39031 0.37793 6.57274 0.716577 5.96994 1.31937C5.36715 1.92217 5.0285 2.73973 5.0285 3.59222C5.0285 4.4447 5.36715 5.26226 5.96994 5.86506C6.57274 6.46786 7.39031 6.8065 8.24279 6.8065ZM0.742787 16.4494C0.742787 15.4644 0.936781 14.4892 1.31369 13.5792C1.6906 12.6693 2.24305 11.8425 2.93949 11.1461C3.63593 10.4496 4.46272 9.89717 5.37266 9.52026C6.2826 9.14335 7.25787 8.94936 8.24279 8.94936C9.2277 8.94936 10.203 9.14335 11.1129 9.52026C12.0229 9.89717 12.8496 10.4496 13.5461 11.1461C14.2425 11.8425 14.795 12.6693 15.1719 13.5792C15.5488 14.4892 15.7428 15.4644 15.7428 16.4494H0.742787Z" fill="#889DC4"/>
</svg>
