<svg width="23" height="26" viewBox="0 0 23 26" fill="none" xmlns="http://www.w3.org/2000/svg">
<path fill-rule="evenodd" clip-rule="evenodd" d="M1.03659 12.7966C0.741862 12.5018 0.576294 12.102 0.576294 11.6852C0.576294 11.2683 0.741862 10.8685 1.03659 10.5737L10.4693 1.14096C10.7641 0.846232 11.1639 0.680664 11.5808 0.680664C11.9977 0.680664 12.3975 0.846232 12.6923 1.14096L22.125 10.5737C22.4114 10.8702 22.5698 11.2673 22.5662 11.6795C22.5627 12.0917 22.3973 12.486 22.1058 12.7775C21.8143 13.069 21.42 13.2343 21.0078 13.2379C20.5956 13.2415 20.1985 13.083 19.902 12.7966L13.1529 6.04754V24.2621C13.1529 24.679 12.9873 25.0789 12.6924 25.3738C12.3976 25.6686 11.9977 25.8342 11.5808 25.8342C11.1638 25.8342 10.764 25.6686 10.4691 25.3738C10.1743 25.0789 10.0087 24.679 10.0087 24.2621V6.04754L3.25956 12.7966C2.96475 13.0914 2.56495 13.2569 2.14808 13.2569C1.73121 13.2569 1.3314 13.0914 1.03659 12.7966Z" fill="#617DAE"/>
</svg>
