<svg width="20" height="20" viewBox="0 0 20 20" fill="none" xmlns="http://www.w3.org/2000/svg">
<path d="M8.06885 3.42497H3.06885C2.53841 3.42497 2.02971 3.63568 1.65463 4.01075C1.27956 4.38583 1.06885 4.89453 1.06885 5.42497V16.425C1.06885 16.9554 1.27956 17.4641 1.65463 17.8392C2.02971 18.2143 2.53841 18.425 3.06885 18.425H14.0688C14.5993 18.425 15.108 18.2143 15.4831 17.8392C15.8581 17.4641 16.0688 16.9554 16.0688 16.425V11.425M14.6548 2.01097C14.8393 1.81995 15.06 1.66758 15.304 1.56276C15.548 1.45795 15.8105 1.40277 16.076 1.40047C16.3416 1.39816 16.605 1.44876 16.8508 1.54932C17.0965 1.64989 17.3199 1.79839 17.5076 1.98618C17.6954 2.17396 17.8439 2.39727 17.9445 2.64306C18.0451 2.88885 18.0957 3.15221 18.0933 3.41777C18.091 3.68333 18.0359 3.94577 17.9311 4.18978C17.8262 4.43378 17.6739 4.65447 17.4828 4.83897L8.89685 13.425H6.06885V10.597L14.6548 2.01097Z" stroke="#8097C0" stroke-width="2" stroke-linecap="round" stroke-linejoin="round"/>
</svg>
