<svg width="197" height="36" viewBox="0 0 197 36" fill="none" xmlns="http://www.w3.org/2000/svg">
<path d="M17.6875 0.9375V27.3433C24.8948 27.3433 30.7354 21.4319 30.7354 14.1404C30.7354 6.84889 24.8948 0.9375 17.6875 0.9375Z" fill="#323232"/>
<path d="M4.63717 14.1404C4.63717 6.84889 10.4812 0.9375 17.685 0.9375H0.734375V35.1787H17.685V27.3433C10.4778 27.3433 4.63717 21.4319 4.63717 14.1404Z" fill="#323232"/>
<path d="M44.8398 18.3438C44.8398 19.4297 45.0039 20.4062 45.332 21.2734C45.6602 22.1328 46.1094 22.8633 46.6797 23.4648C47.2578 24.0586 47.9375 24.5156 48.7188 24.8359C49.5 25.1484 50.3477 25.3047 51.2617 25.3047C51.8086 25.3047 52.3359 25.1992 52.8438 24.9883C53.3516 24.7773 53.8203 24.5039 54.25 24.168C54.6875 23.8242 55.0781 23.4414 55.4219 23.0195C55.7656 22.5898 56.0469 22.1562 56.2656 21.7188L57.3672 22.4219C57.0469 22.9453 56.668 23.4492 56.2305 23.9336C55.793 24.4102 55.2852 24.8359 54.707 25.2109C54.1367 25.5781 53.4883 25.8711 52.7617 26.0898C52.043 26.3086 51.2383 26.418 50.3477 26.418C49.0586 26.418 47.8867 26.2031 46.832 25.7734C45.7852 25.3438 44.8867 24.7617 44.1367 24.0273C43.3867 23.293 42.8047 22.4375 42.3906 21.4609C41.9844 20.4766 41.7812 19.4375 41.7812 18.3438C41.7812 17.6172 41.875 16.9102 42.0625 16.2227C42.25 15.5273 42.5195 14.8789 42.8711 14.2773C43.2305 13.668 43.6641 13.1133 44.1719 12.6133C44.6875 12.1055 45.2656 11.6719 45.9062 11.3125C46.5547 10.9453 47.2617 10.6641 48.0273 10.4688C48.793 10.2656 49.6094 10.1641 50.4766 10.1641C51.3047 10.1641 52.0664 10.2773 52.7617 10.5039C53.4648 10.7227 54.1016 11.0156 54.6719 11.3828C55.25 11.75 55.7617 12.1758 56.207 12.6602C56.6602 13.1367 57.0469 13.6367 57.3672 14.1602L56.2305 14.9102C55.582 13.6523 54.8555 12.7344 54.0508 12.1562C53.2461 11.5703 52.3203 11.2773 51.2734 11.2773C50.375 11.2773 49.5352 11.4414 48.7539 11.7695C47.9727 12.0977 47.2891 12.5664 46.7031 13.1758C46.125 13.7852 45.668 14.5273 45.332 15.4023C45.0039 16.2695 44.8398 17.25 44.8398 18.3438ZM63.625 18.6016V26.0547H61.0117V10.5156H63.625V17.5938H71.4297V10.5156H74.043V26.0547H71.4297V18.6016H63.625ZM84.3672 10.1641L91.6797 26.0547H89.0195L86.6523 20.875H79.9844L77.5352 26.0547H76.2227L83.7109 10.1641H84.3672ZM80.4414 19.8672H86.1719L83.3477 13.7148L80.4414 19.8672ZM93.8477 10.5156H95.3125L105.496 21.8828H105.613V10.5156H106.762V26.418H106.152L95.125 13.7852H95.0312V26.0547H93.8477V10.5156ZM119.816 11.2773C118.879 11.2773 118.012 11.4453 117.215 11.7812C116.426 12.1094 115.742 12.5859 115.164 13.2109C114.594 13.8281 114.148 14.5781 113.828 15.4609C113.508 16.3359 113.348 17.3164 113.348 18.4023C113.348 19.4961 113.52 20.4844 113.863 21.3672C114.215 22.2422 114.691 22.9883 115.293 23.6055C115.902 24.2227 116.617 24.6992 117.438 25.0352C118.258 25.3633 119.137 25.5273 120.074 25.5273C120.754 25.5273 121.367 25.4375 121.914 25.2578C122.461 25.0703 122.953 24.8047 123.391 24.4609V19.0117H120.449V18.0859H126.004V24.918C125.551 25.1602 125.094 25.375 124.633 25.5625C124.172 25.75 123.672 25.9062 123.133 26.0312C122.602 26.1562 122.016 26.25 121.375 26.3125C120.734 26.3828 120.008 26.418 119.195 26.418C118.336 26.418 117.52 26.3203 116.746 26.125C115.973 25.9375 115.254 25.668 114.59 25.3164C113.934 24.9648 113.34 24.5469 112.809 24.0625C112.277 23.5703 111.824 23.0273 111.449 22.4336C111.082 21.8398 110.797 21.2031 110.594 20.5234C110.391 19.8438 110.289 19.1367 110.289 18.4023C110.289 17.6758 110.383 16.9688 110.57 16.2812C110.766 15.5859 111.043 14.9336 111.402 14.3242C111.762 13.707 112.199 13.1445 112.715 12.6367C113.23 12.1289 113.812 11.6914 114.461 11.3242C115.109 10.957 115.816 10.6719 116.582 10.4688C117.348 10.2656 118.16 10.1641 119.02 10.1641C119.84 10.1641 120.598 10.2773 121.293 10.5039C121.996 10.7227 122.633 11.0156 123.203 11.3828C123.781 11.75 124.293 12.1758 124.738 12.6602C125.184 13.1367 125.566 13.6367 125.887 14.1602L124.762 14.9102C124.105 13.6523 123.375 12.7344 122.57 12.1562C121.773 11.5703 120.855 11.2773 119.816 11.2773ZM129.988 10.5156H134.91C135.723 10.5156 136.484 10.6133 137.195 10.8086C137.906 11.0039 138.523 11.293 139.047 11.6758C139.578 12.0508 139.992 12.5156 140.289 13.0703C140.594 13.6172 140.746 14.2461 140.746 14.957C140.746 15.6602 140.598 16.2734 140.301 16.7969C140.012 17.3203 139.625 17.7539 139.141 18.0977C138.664 18.4414 138.121 18.6992 137.512 18.8711C136.902 19.0352 136.281 19.1172 135.648 19.1172C135.375 19.1172 135.09 19.1133 134.793 19.1055C134.496 19.0898 134.211 19.0703 133.938 19.0469C133.664 19.0234 133.41 18.9961 133.176 18.9648C132.941 18.9336 132.75 18.9023 132.602 18.8711V26.0547H129.988V10.5156ZM132.602 17.9922C132.898 18.0938 133.215 18.1797 133.551 18.25C133.887 18.3125 134.23 18.3438 134.582 18.3438C135.145 18.3438 135.637 18.2617 136.059 18.0977C136.48 17.9258 136.832 17.6953 137.113 17.4062C137.395 17.1094 137.602 16.7656 137.734 16.375C137.875 15.9766 137.945 15.5547 137.945 15.1094C137.945 14.5859 137.855 14.1133 137.676 13.6914C137.496 13.2695 137.246 12.9102 136.926 12.6133C136.613 12.3086 136.242 12.0742 135.812 11.9102C135.391 11.7461 134.938 11.6641 134.453 11.6641H132.602V17.9922ZM143.863 10.5156H146.477V25.0469H154.305V26.0547H143.863V10.5156ZM167.441 10.5156V11.5234H159.25V17.0781H164.734V18.0859H159.25V25.0469H167.441V26.0547H156.637V10.5156H167.441ZM181.516 10.1641L188.828 26.0547H186.168L183.801 20.875H177.133L174.684 26.0547H173.371L180.859 10.1641H181.516ZM177.59 19.8672H183.32L180.496 13.7148L177.59 19.8672ZM190.996 10.5156H193.609V26.0547H190.996V10.5156Z" fill="#323232"/>
</svg>
