<svg width="65" height="65" viewBox="0 0 65 65" fill="none" xmlns="http://www.w3.org/2000/svg">
<path d="M64.6445 32.1973C64.6445 49.9275 50.2713 64.3008 32.541 64.3008C14.8107 64.3008 0.4375 49.9275 0.4375 32.1973C0.4375 14.467 14.8107 0.09375 32.541 0.09375C50.2713 0.09375 64.6445 14.467 64.6445 32.1973Z" fill="#F3F3F3"/>
<path d="M42.4546 26.5867C42.4546 32.0625 38.0156 36.5015 32.5398 36.5015C27.064 36.5015 22.625 32.0625 22.625 26.5867C22.625 21.1109 27.064 16.6719 32.5398 16.6719C38.0156 16.6719 42.4546 21.1109 42.4546 26.5867Z" fill="white"/>
<path d="M32.542 37.3672C35.1612 37.3672 37.7549 37.8739 40.1748 38.8584C42.5948 39.843 44.7943 41.2862 46.6465 43.1055C48.4986 44.9247 49.9673 47.0849 50.9697 49.4619C51.4409 50.5793 51.8035 54.0523 52.0566 57.6865C46.6481 61.8338 39.8832 64.3008 32.541 64.3008C25.1996 64.3008 18.4356 61.834 13.0273 57.6875C13.2805 54.0529 13.643 50.5794 14.1143 49.4619C15.1166 47.0849 16.5854 44.9248 18.4375 43.1055C20.2897 41.2861 22.4892 39.843 24.9092 38.8584C27.3291 37.8739 29.9227 37.3672 32.542 37.3672Z" fill="white"/>
</svg>
